HIERARCHY
ROOT joint_Root
{
	OFFSET 0.0 0.0 0.0
	CHANNELS 6 Xposition Yposition Zposition Zrotation Xrotation Yrotation 
	JOINT Hips
	{
		OFFSET 4.5925 91.4895 -427.239
		CHANNELS 6 Xposition Yposition Zposition Zrotation Xrotation Yrotation 
		JOINT Spine
		{
			OFFSET 15.7357 0.0 0.0
			CHANNELS 6 Xposition Yposition Zposition Zrotation Xrotation Yrotation 
			JOINT Chest
			{
				OFFSET 8.98455 -0.406207 0.0
				CHANNELS 6 Xposition Yposition Zposition Zrotation Xrotation Yrotation 
				JOINT Neck
				{
					OFFSET 16.3773 0.0 0.0
					CHANNELS 6 Xposition Yposition Zposition Zrotation Xrotation Yrotation 
					JOINT Head
					{
						OFFSET 6.45672 0.0 0.0
						CHANNELS 6 Xposition Yposition Zposition Zrotation Xrotation Yrotation 
						End Site
						{
							OFFSET 0.0 0.0 0.0
						}
					}
				}
				JOINT Shoulder_L
				{
					OFFSET 12.9942 -0.242716 4.98039
					CHANNELS 6 Xposition Yposition Zposition Zrotation Xrotation Yrotation 
					JOINT UpperArm_L
					{
						OFFSET 5.34809 0.0 0.0
						CHANNELS 6 Xposition Yposition Zposition Zrotation Xrotation Yrotation 
						JOINT LowerArm_L
						{
							OFFSET 24.3286 1.87007e-05 0.0
							CHANNELS 6 Xposition Yposition Zposition Zrotation Xrotation Yrotation 
							JOINT Hand_L
							{
								OFFSET 22.2916 0.0 0.0
								CHANNELS 6 Xposition Yposition Zposition Zrotation Xrotation Yrotation 
								End Site
								{
									OFFSET 0.0 0.0 0.0
								}
							}
						}
					}
				}
				JOINT Shoulder_R
				{
					OFFSET 12.9945 -0.242716 -4.98039
					CHANNELS 6 Xposition Yposition Zposition Zrotation Xrotation Yrotation 
					JOINT UpperArm_R
					{
						OFFSET -5.34813 0.0 0.0
						CHANNELS 6 Xposition Yposition Zposition Zrotation Xrotation Yrotation 
						JOINT LowerArm_R
						{
							OFFSET -24.3289 0.000322201 0.0
							CHANNELS 6 Xposition Yposition Zposition Zrotation Xrotation Yrotation 
							JOINT Hand_R
							{
								OFFSET -22.2915 -0.000108084 0.0
								CHANNELS 6 Xposition Yposition Zposition Zrotation Xrotation Yrotation 
								End Site
								{
									OFFSET 0.0 0.0 0.0
								}
							}
						}
					}
				}
			}
		}
		JOINT UpperLeg_L
		{
			OFFSET -2.19248 -6.46944 0.0
			CHANNELS 6 Xposition Yposition Zposition Zrotation Xrotation Yrotation 
			JOINT LowerLeg_L
			{
				OFFSET 39.0811 0.0 -1.23785e-05
				CHANNELS 6 Xposition Yposition Zposition Zrotation Xrotation Yrotation 
				JOINT Foot_L
				{
					OFFSET 40.9854 0.0 -1.26872e-05
					CHANNELS 6 Xposition Yposition Zposition Zrotation Xrotation Yrotation 
					JOINT Toes_L
					{
						OFFSET 11.7543 0.0 0.0
						CHANNELS 6 Xposition Yposition Zposition Zrotation Xrotation Yrotation 
						End Site
						{
							OFFSET 0.0 0.0 0.0
						}
					}
				}
			}
		}
		JOINT UpperLeg_R
		{
			OFFSET -2.19251 6.46944 0.0
			CHANNELS 6 Xposition Yposition Zposition Zrotation Xrotation Yrotation 
			JOINT LowerLeg_R
			{
				OFFSET -39.0811 -0.00228153 -0.0401928
				CHANNELS 6 Xposition Yposition Zposition Zrotation Xrotation Yrotation 
				JOINT Foot_R
				{
					OFFSET -40.9854 0.0 0.0
					CHANNELS 6 Xposition Yposition Zposition Zrotation Xrotation Yrotation 
					JOINT Toes_R
					{
						OFFSET -11.7543 0.0 0.0
						CHANNELS 6 Xposition Yposition Zposition Zrotation Xrotation Yrotation 
						End Site
						{
							OFFSET 0.0 0.0 0.0
						}
					}
				}
			}
		}
	}
}
MOTION
Frames:	9
Frame Time:	0.0333333
0.000000 0.000000 0.000000 0.000000 0.000000 -0.000000 -188.258000 93.012800 199.708000 83.892700 79.067500 0.177530 15.735700 0.000005 -0.000001 126.205000 82.096200 -126.977000 8.984550 -0.406207 -0.000000 5.106970 9.336010 -1.963650 16.377300 -0.000001 -0.000001 -1.798530 -0.735323 -0.422086 6.456720 -0.000001 -0.000000 -2.042190 -5.646080 0.350942 12.994200 -0.242716 4.980390 -86.493500 -8.815220 -68.205900 5.348090 -0.000007 -0.000001 -73.471000 37.978200 40.121000 24.328600 0.000019 0.000005 5.121800 0.928998 -79.749300 22.291600 -0.000001 0.000005 0.516581 5.592460 -10.900100 12.994500 -0.242716 -4.980390 89.809000 1.236520 -81.218300 -5.348130 -0.000001 -0.000004 -45.583700 26.225400 -47.491500 -24.328900 0.000322 -0.000009 -7.366700 4.130880 -119.126000 -22.291500 -0.000108 -0.000004 24.550800 5.608620 -11.872500 -2.192480 -6.469440 -0.000000 178.225000 -5.108500 -33.348100 39.081100 -0.000007 -0.000012 0.018596 -0.021029 41.482900 40.985400 -0.000006 -0.000013 3.309650 0.182088 -68.481100 11.754300 -0.000000 0.000003 -0.007502 -0.083929 -19.994000 -2.192510 6.469440 -0.000001 168.727000 23.998400 -172.358000 -39.081100 -0.002282 -0.040193 0.053364 -0.134755 20.373100 -40.985400 0.000008 0.000006 7.787990 23.046600 -50.016900 -11.754300 -0.000006 -0.000006 -0.136983 -0.528360 -38.841600
0.000000 0.000000 0.000000 0.000000 0.000000 -0.000000 -183.640000 91.432300 199.781000 82.054000 77.313800 3.004550 15.735700 0.000005 -0.000001 126.637000 81.399200 -127.531000 8.984550 -0.406207 -0.000000 6.194900 10.248900 -2.347040 16.377300 -0.000001 -0.000001 -2.194450 -0.379205 -0.553077 6.456720 -0.000001 -0.000000 -2.833310 -5.830930 0.236264 12.994200 -0.242716 4.980390 -86.501900 -8.546170 -67.639900 5.348090 -0.000007 -0.000001 -72.418800 35.417600 38.711100 24.328600 0.000019 0.000005 4.113360 0.615020 -81.514200 22.291600 -0.000001 0.000005 1.336940 5.591760 -10.867500 12.994500 -0.242716 -4.980390 89.804600 1.346200 -81.739500 -5.348130 -0.000001 -0.000004 -45.747900 28.642200 -45.725300 -24.328900 0.000322 -0.000009 -7.653560 3.820470 -116.375000 -22.291500 -0.000108 -0.000004 25.628600 5.607900 -11.824900 -2.192480 -6.469440 -0.000000 179.148000 -8.365000 -32.067400 39.081100 -0.000007 -0.000012 0.017868 -0.025833 34.668700 40.985400 -0.000006 -0.000013 1.445940 0.470887 -70.065000 11.754300 -0.000000 0.000003 -0.007114 -0.080650 -19.860100 -2.192510 6.469440 -0.000001 167.861000 20.037100 -170.731000 -39.081100 -0.002282 -0.040193 0.076010 -0.166119 23.634800 -40.985400 0.000008 0.000006 9.142570 21.814900 -50.082400 -11.754300 -0.000006 -0.000006 -0.209968 -0.661410 -44.997100
0.000000 0.000000 0.000000 0.000000 0.000000 -0.000000 -178.510000 89.163200 199.736000 82.514900 76.048300 3.298780 15.735700 0.000005 -0.000001 124.966000 81.156600 -126.116000 8.984550 -0.406207 -0.000000 6.913610 10.111300 -2.916250 16.377300 -0.000001 -0.000001 -2.411950 0.039374 -0.299159 6.456720 -0.000001 -0.000000 -3.486680 -5.185880 0.111753 12.994200 -0.242716 4.980390 -87.012200 -7.168130 -67.300100 5.348090 -0.000007 -0.000001 -71.096200 31.879900 36.390200 24.328600 0.000019 0.000005 3.232630 0.419583 -82.611900 22.291600 -0.000001 0.000005 2.186040 5.588700 -10.690200 12.994500 -0.242716 -4.980390 89.670800 2.493560 -82.472200 -5.348130 -0.000001 -0.000004 -46.751300 32.593200 -41.819200 -24.328900 0.000322 -0.000009 -8.865360 3.571280 -111.775000 -22.291500 -0.000108 -0.000004 26.128100 5.611340 -12.044600 -2.192480 -6.469440 -0.000000 179.212000 -11.314500 -34.120000 39.081100 -0.000007 -0.000012 0.123483 -0.163609 37.043200 40.985400 -0.000006 -0.000013 1.802040 -3.807990 -69.586200 11.754300 -0.000000 0.000003 -0.006610 -0.076286 -19.682000 -2.192510 6.469440 -0.000001 166.505000 16.300100 -169.143000 -39.081100 -0.002282 -0.040193 0.101273 -0.188675 27.439800 -40.985400 0.000008 0.000006 10.141600 20.466900 -50.609100 -11.754300 -0.000006 -0.000006 -0.311573 -0.804459 -52.115800
0.000000 0.000000 0.000000 0.000000 0.000000 -0.000000 -172.911000 86.593700 199.500000 86.166400 75.686400 -0.353130 15.735700 0.000005 -0.000001 122.115000 81.583400 -123.812000 8.984550 -0.406207 -0.000000 6.689060 8.937160 -3.918770 16.377300 -0.000001 -0.000001 -2.326620 0.407636 0.292748 6.456720 -0.000001 -0.000000 -3.723830 -4.094100 0.383642 12.994200 -0.242716 4.980390 -88.249200 -4.202840 -67.362200 5.348090 -0.000007 -0.000001 -68.886000 28.133500 33.249900 24.328600 0.000019 0.000005 3.241980 0.380916 -83.306200 22.291600 -0.000001 0.000005 3.693770 5.581200 -10.277900 12.994500 -0.242716 -4.980390 89.329900 5.314380 -82.802100 -5.348130 -0.000001 -0.000004 -48.501900 36.977200 -34.721200 -24.328900 0.000322 -0.000009 -9.807860 2.696410 -105.221000 -22.291500 -0.000108 -0.000004 25.742200 5.609850 -11.939800 -2.192480 -6.469440 -0.000000 177.533000 -14.633600 -38.062000 39.081100 -0.000007 -0.000012 0.004904 -0.004694 46.237800 40.985400 -0.000006 -0.000013 1.713120 -6.381890 -63.360900 11.754300 -0.000000 0.000003 -0.001188 -0.018041 -17.310400 -2.192510 6.469440 -0.000001 164.631000 13.147400 -168.760000 -39.081100 -0.002282 -0.040193 0.127130 -0.196317 32.243000 -40.985400 0.000008 0.000006 10.382900 18.832400 -49.831700 -11.754300 -0.000006 -0.000006 -0.427442 -0.931220 -59.083500
0.000000 0.000000 0.000000 0.000000 0.000000 -0.000000 -166.733000 84.293700 199.282000 88.793600 75.698000 -1.507050 15.735700 0.000005 -0.000001 117.054000 81.786300 -119.134000 8.984550 -0.406207 -0.000000 7.048730 7.459470 -4.619360 16.377300 -0.000001 -0.000001 -2.611300 0.612554 0.842344 6.456720 -0.000001 -0.000000 -3.129440 -2.900740 1.216910 12.994200 -0.242716 4.980390 -90.682200 1.689080 -67.958100 5.348090 -0.000007 -0.000001 -63.806000 25.174800 28.598200 24.328600 0.000019 0.000005 4.079760 0.383867 -84.632900 22.291600 -0.000001 0.000005 5.839940 5.586920 -10.589300 12.994500 -0.242716 -4.980390 88.770800 9.886680 -82.877000 -5.348130 -0.000001 -0.000004 -51.873200 39.560600 -23.030900 -24.328900 0.000322 -0.000009 -8.641590 0.901918 -95.874800 -22.291500 -0.000108 -0.000004 22.947400 5.607540 -11.806300 -2.192480 -6.469440 -0.000000 176.895000 -16.323100 -37.163700 39.081100 -0.000007 -0.000012 -0.447619 0.300159 56.156400 40.985400 -0.000006 -0.000013 2.201950 -3.965730 -72.871900 11.754300 -0.000000 0.000003 -0.000094 -0.000973 -16.614900 -2.192510 6.469440 -0.000001 163.851000 9.377990 -169.527000 -39.081100 -0.002282 -0.040193 0.166923 -0.192948 40.302400 -40.985400 0.000008 0.000006 9.667050 15.315100 -43.805200 -11.754300 -0.000006 -0.000006 -0.440816 -0.944006 -59.833700
0.000000 0.000000 0.000000 0.000000 0.000000 -0.000000 -161.416000 83.066300 198.869000 96.134700 77.389900 -7.533600 15.735700 0.000005 -0.000001 110.854000 81.760400 -113.574000 8.984550 -0.406207 -0.000000 7.809410 5.841520 -5.838500 16.377300 -0.000001 -0.000001 -2.846240 0.202303 0.661638 6.456720 -0.000001 -0.000000 -3.183720 -3.405690 3.151900 12.994200 -0.242716 4.980390 -92.804500 6.931540 -67.909200 5.348090 -0.000007 -0.000001 -58.259800 25.967600 14.908400 24.328600 0.000019 0.000005 5.290670 0.722339 -82.269000 22.291600 -0.000001 0.000005 7.535320 5.573230 -9.849830 12.994500 -0.242716 -4.980390 88.257400 13.037100 -82.319200 -5.348130 -0.000001 -0.000004 -59.620500 36.652600 -8.705210 -24.328900 0.000322 -0.000009 -8.012120 -1.543920 -79.217500 -22.291500 -0.000108 -0.000004 21.363300 5.622710 -12.795800 -2.192480 -6.469440 -0.000000 175.294000 -15.256700 -33.743300 39.081100 -0.000007 -0.000012 -0.600359 0.347816 59.915600 40.985400 -0.000006 -0.000013 2.454230 -3.879990 -78.886300 11.754300 -0.000000 0.000003 -0.000308 -0.002657 -16.676400 -2.192510 6.469440 -0.000001 163.430000 7.140470 -174.927000 -39.081100 -0.002282 -0.040193 0.245701 -0.189699 51.961000 -40.985400 0.000008 0.000006 6.050920 8.847840 -30.259700 -11.754300 -0.000006 -0.000006 -0.160186 -0.574463 -40.934200
0.000000 0.000000 0.000000 0.000000 0.000000 -0.000000 -156.922000 83.037300 198.756000 100.315000 79.825100 -11.789900 15.735700 0.000005 -0.000001 108.105000 82.103000 -110.998000 8.984550 -0.406207 -0.000000 7.397080 4.899240 -6.099630 16.377300 -0.000001 -0.000001 -2.042370 -1.073330 0.789469 6.456720 -0.000001 -0.000000 -2.505820 -4.280480 4.276920 12.994200 -0.242716 4.980390 -93.323800 8.631880 -68.845700 5.348090 -0.000007 -0.000001 -56.358100 28.018300 -2.038980 24.328600 0.000019 0.000005 10.954700 1.590570 -81.830000 22.291600 -0.000001 0.000005 7.443180 5.576920 -10.041800 12.994500 -0.242716 -4.980390 88.156200 12.174900 -81.320700 -5.348130 -0.000001 -0.000004 -67.330300 30.425700 2.584140 -24.328900 0.000322 -0.000009 -12.906400 -7.756290 -59.567800 -22.291500 -0.000108 -0.000004 21.961700 5.613640 -12.174400 -2.192480 -6.469440 -0.000000 174.929000 -13.022300 -30.037200 39.081100 -0.000007 -0.000012 -0.623719 0.365810 59.609900 40.985400 -0.000006 -0.000013 2.380540 -3.787570 -82.232600 11.754300 -0.000000 0.000003 -0.000398 -0.003294 -16.699000 -2.192510 6.469440 -0.000001 165.732000 5.628430 177.415000 -39.081100 -0.002282 -0.040193 0.273010 -0.147547 61.328600 -40.985400 0.000008 0.000006 4.019620 2.281040 -19.376300 -11.754300 -0.000006 -0.000006 -0.018635 -0.159610 -23.091700
0.000000 0.000000 0.000000 0.000000 0.000000 -0.000000 -152.421000 84.441700 198.942000 105.050000 83.163000 -16.942500 15.735700 0.000005 -0.000001 101.491000 82.606200 -104.144000 8.984550 -0.406207 -0.000000 6.806220 2.958390 -5.476480 16.377300 -0.000001 -0.000001 -1.847770 -1.894870 0.249138 6.456720 -0.000001 -0.000000 -1.028100 -4.274620 5.254810 12.994200 -0.242716 4.980390 -92.413300 7.215080 -71.458500 5.348090 -0.000007 -0.000001 -58.307400 29.574700 -15.521700 24.328600 0.000019 0.000005 10.531200 0.674369 -86.400000 22.291600 -0.000001 0.000005 5.941660 5.565270 -9.471340 12.994500 -0.242716 -4.980390 88.083800 11.586000 -80.541300 -5.348130 -0.000001 -0.000004 -67.614200 30.120000 12.376300 -24.328900 0.000322 -0.000009 -18.481200 -13.771100 -54.538400 -22.291500 -0.000108 -0.000004 23.540200 5.608310 -11.827400 -2.192480 -6.469440 -0.000000 175.512000 -11.055800 -24.250700 39.081100 -0.000007 -0.000012 -0.576369 0.410961 54.511800 40.985400 -0.000006 -0.000013 2.681500 -2.298710 -83.071900 11.754300 -0.000000 0.000003 -0.000394 -0.003263 -16.698000 -2.192510 6.469440 -0.000001 169.295000 4.652510 170.808000 -39.081100 -0.002282 -0.040193 0.154163 -0.059499 68.497900 -40.985400 0.000008 0.000006 6.163130 5.249800 -29.296500 -11.754300 -0.000006 -0.000006 -0.019811 -0.166238 -23.364600
0.000000 0.000000 0.000000 0.000000 0.000000 -0.000000 -147.834000 86.779800 199.538000 103.906000 87.685100 -16.360200 15.735700 0.000005 -0.000001 87.663100 83.073700 -89.507700 8.984550 -0.406207 -0.000000 6.069360 -0.536067 -3.656600 16.377300 -0.000001 -0.000001 -1.651310 -1.875270 -0.180745 6.456720 -0.000001 -0.000000 -0.601133 -2.307600 4.699080 12.994200 -0.242716 4.980390 -91.015300 3.463400 -73.660700 5.348090 -0.000007 -0.000001 -60.865800 31.403100 -26.286400 24.328600 0.000019 0.000005 5.975920 -0.229023 -92.217000 22.291600 -0.000001 0.000005 9.012150 5.544260 -8.436390 12.994500 -0.242716 -4.980390 88.018400 9.970130 -78.694400 -5.348130 -0.000001 -0.000004 -67.445000 35.708900 21.604200 -24.328900 0.000322 -0.000009 -16.374300 -10.687200 -57.751900 -22.291500 -0.000108 -0.000004 24.351600 5.625380 -13.008700 -2.192480 -6.469440 -0.000000 177.922000 -8.796100 -16.780700 39.081100 -0.000007 -0.000012 -0.452223 0.445964 45.400300 40.985400 -0.000006 -0.000013 2.783260 0.172875 -81.675000 11.754300 -0.000000 0.000003 -0.000345 -0.002922 -16.685900 -2.192510 6.469440 -0.000001 173.690000 5.859830 165.071000 -39.081100 -0.002282 -0.040193 0.119103 -0.041393 70.360900 -40.985400 0.000008 0.000006 5.738970 1.850360 -39.545600 -11.754300 -0.000006 -0.000006 -0.019994 -0.167255 -23.406500
